<?xml version="1.0" standalone="no"?>
<!DOCTYPE svg PUBLIC "-//W3C//DTD SVG 20010904//EN"
 "http://www.w3.org/TR/2001/REC-SVG-20010904/DTD/svg10.dtd">
<svg version="1.0" xmlns="http://www.w3.org/2000/svg"
 width="50px" height="39px" viewBox="0 0 50 39"
 preserveAspectRatio="xMidYMid meet">
<metadata>
Created by potrace 1.16, written by Peter Selinger 2001-2019
</metadata>
<g transform="translate(0.000000,1280.000000) scale(0.100000,-0.100000)"
fill="#000000" stroke="none">
<path d="M4968 10643 c-10 -2 -18 -8 -18 -13 0 -4 -30 -11 -67 -15 -38 -4 -72
-10 -78 -15 -26 -20 -111 -30 -164 -20 -68 13 -212 12 -271 -1 -25 -6 -57 -13
-72 -16 -16 -3 -28 -9 -28 -14 0 -5 -5 -9 -11 -9 -25 0 -160 -63 -149 -70 18
-11 -28 -40 -62 -40 -17 0 -27 -5 -25 -12 1 -8 -20 -16 -58 -22 -33 -5 -62
-12 -65 -16 -3 -4 -23 -13 -45 -20 -22 -7 -42 -16 -45 -19 -7 -9 -81 -34 -86
-29 -5 6 97 58 113 58 7 0 10 6 7 13 -5 13 53 40 67 31 5 -3 9 0 9 7 0 7 10
23 22 36 29 31 18 39 -18 11 -19 -15 -49 -25 -89 -29 -33 -4 -77 -10 -99 -14
-26 -6 -40 -4 -45 4 -6 9 -17 5 -39 -14 -17 -14 -38 -25 -46 -23 -7 2 -43 -24
-78 -58 -35 -33 -78 -69 -96 -79 -18 -11 -32 -25 -32 -31 0 -7 -20 -22 -44
-34 -24 -11 -47 -27 -50 -35 -3 -8 -14 -15 -25 -15 -11 0 -23 -5 -26 -10 -3
-6 -38 -35 -76 -66 -57 -45 -76 -55 -97 -51 -15 3 -38 -1 -52 -8 -46 -24 -125
-43 -159 -38 -28 5 -33 3 -28 -10 4 -10 -1 -18 -14 -22 -10 -4 -19 -11 -19
-16 0 -5 -8 -9 -17 -9 -10 0 -52 -18 -93 -40 -41 -22 -100 -52 -130 -67 -30
-14 -80 -39 -110 -53 -30 -15 -72 -33 -93 -40 -21 -7 -37 -14 -34 -16 2 -2 37
7 77 20 41 14 76 23 78 22 1 -2 -10 -11 -25 -21 -15 -10 -32 -24 -36 -32 -4
-7 -12 -13 -18 -13 -15 0 -73 -70 -76 -92 -4 -26 11 -44 43 -52 35 -9 104 -40
104 -46 -2 -14 -200 -154 -208 -146 -8 9 -191 -169 -269 -261 -61 -72 -126
-180 -117 -194 4 -7 3 -9 -3 -6 -11 7 -38 -54 -49 -112 -5 -25 -4 -32 4 -27
23 14 11 -8 -27 -49 -22 -24 -42 -41 -45 -37 -9 9 -236 -234 -236 -253 0 -4
-14 -24 -32 -44 -30 -34 -34 -36 -87 -33 -41 2 -52 0 -41 -7 14 -10 -19 -14
-117 -15 -13 0 -23 -4 -23 -9 0 -8 156 -2 205 9 11 2 15 1 8 -2 -7 -3 -10 -11
-7 -19 11 -28 -73 -125 -108 -125 -10 0 -18 -4 -18 -10 0 -5 -9 -19 -20 -30
-26 -26 -79 -26 -124 1 -25 15 -36 17 -36 8 0 -10 -3 -10 -12 -1 -7 7 -19 12
-29 12 -28 0 -161 67 -218 109 -29 22 -59 42 -65 44 -6 2 -8 8 -4 12 10 10
117 -14 152 -36 17 -10 40 -19 51 -18 14 0 10 4 -12 12 -18 7 -32 16 -30 22 2
11 -46 24 -118 31 -27 3 -60 11 -72 19 -16 11 -22 12 -26 2 -3 -7 21 -40 52
-73 45 -49 73 -69 146 -102 50 -22 109 -46 133 -53 23 -7 42 -16 42 -21 0 -4
10 -8 23 -8 12 0 29 -5 37 -10 13 -9 10 -14 -15 -35 -39 -32 -79 -32 -122 1
-44 33 -54 25 -13 -10 41 -34 27 -34 -19 1 l-36 27 28 -33 c15 -18 24 -37 21
-42 -3 -6 2 -19 11 -29 10 -11 15 -26 12 -33 -3 -9 4 -19 19 -26 13 -6 24 -18
24 -28 0 -9 12 -30 27 -45 49 -51 -5 -30 -89 35 -56 42 -67 28 -15 -18 81 -73
99 -85 117 -85 24 0 106 -35 114 -49 4 -6 3 -11 -3 -11 -5 0 -4 -12 5 -27 7
-16 14 -44 15 -63 1 -19 5 -48 9 -65 4 -17 5 3 2 48 -6 88 -3 90 77 62 23 -8
48 -12 56 -9 20 8 67 -4 61 -15 -3 -5 -18 -7 -33 -5 l-28 4 25 -10 c30 -12 46
-60 56 -167 4 -42 12 -77 20 -84 8 -6 14 -16 14 -21 0 -16 30 -81 35 -76 3 3
-1 21 -10 41 -31 74 -56 184 -47 207 8 21 10 19 16 -21 10 -66 37 -148 48
-146 6 1 13 -4 16 -12 2 -8 0 -11 -6 -7 -6 4 -8 -2 -5 -14 3 -11 9 -17 14 -14
5 3 9 -5 9 -17 0 -35 34 -97 91 -168 45 -55 64 -69 146 -108 66 -32 102 -44
121 -40 16 3 39 -2 54 -11 24 -14 28 -23 28 -59 0 -23 -6 -60 -14 -80 -8 -21
-17 -59 -20 -86 -3 -26 -12 -60 -20 -75 -16 -31 -22 -232 -7 -232 12 0 38
-101 46 -179 7 -60 24 -98 39 -84 3 4 6 -3 6 -15 0 -11 -4 -23 -9 -26 -10 -7
-26 -100 -22 -131 7 -49 21 -35 21 20 0 99 11 54 15 -63 2 -82 8 -120 23 -153
14 -29 17 -48 11 -56 -7 -7 -6 -13 1 -18 18 -11 12 -55 -8 -55 -17 0 -41 65
-58 158 -4 17 -10 32 -15 32 -11 0 -12 5 7 -60 8 -30 26 -95 39 -145 13 -49
28 -103 34 -118 14 -36 14 -236 0 -312 -8 -42 -8 -60 1 -65 6 -4 8 -14 4 -23
-3 -9 -9 -15 -13 -13 -4 3 -8 -25 -9 -61 -1 -36 -7 -72 -13 -79 -7 -8 -9 -17
-6 -21 4 -3 9 2 13 11 13 34 19 14 16 -54 -3 -47 -7 -68 -15 -63 -7 4 -8 0 -3
-13 19 -46 26 -96 29 -209 3 -96 1 -124 -11 -138 -13 -15 -13 -19 1 -35 10
-10 17 -27 17 -38 0 -25 -17 -50 -27 -40 -13 13 -13 149 0 165 10 11 9 13 -3
9 -12 -4 -15 -28 -16 -124 -1 -86 1 -113 9 -97 15 33 37 37 37 8 0 -14 -4 -25
-10 -25 -23 0 -8 -44 25 -73 22 -19 35 -40 35 -55 0 -20 -3 -22 -14 -13 -8 7
-17 24 -21 38 -4 18 -9 23 -17 15 -7 -7 -7 -21 0 -44 5 -18 10 -49 11 -69 1
-19 6 -51 12 -70 6 -19 12 -56 15 -84 2 -27 9 -63 14 -80 8 -23 9 -14 4 40 -3
38 -2 66 2 63 5 -6 12 -44 30 -178 3 -25 12 -52 20 -61 8 -8 14 -35 14 -58 0
-26 4 -40 10 -36 16 10 24 -23 10 -40 -7 -8 -22 -15 -33 -15 -16 0 -18 -3 -9
-12 19 -19 14 -44 -8 -45 -13 -1 -20 4 -20 15 0 14 -2 14 -9 3 -5 -8 -7 -20
-4 -27 2 -6 -14 -22 -36 -35 -43 -24 -42 -47 1 -30 28 10 38 6 38 -16 0 -8 -5
-11 -11 -7 -8 4 -9 -1 -4 -16 5 -14 2 -25 -6 -30 -9 -6 -2 -13 22 -24 l34 -15
-35 6 c-19 3 -53 12 -75 20 -22 7 -43 15 -46 16 -4 1 -9 -2 -10 -8 -2 -5 6
-11 19 -13 12 -2 22 -8 22 -13 0 -5 7 -9 15 -9 16 0 37 -41 26 -50 -11 -8 -42
-90 -33 -89 4 1 14 1 22 0 13 -1 13 -3 0 -10 -8 -6 -18 -7 -22 -5 -4 3 -8 1
-8 -5 0 -5 6 -12 13 -14 9 -4 8 -8 -3 -17 -10 -8 -11 -13 -3 -16 8 -4 9 -15 2
-36 -6 -21 -5 -36 2 -45 6 -7 8 -13 4 -13 -4 0 -1 -7 6 -16 11 -14 11 -18 -4
-29 -16 -12 -16 -13 5 -20 l23 -7 -25 -7 c-23 -6 -24 -7 -5 -15 20 -7 20 -8 1
-22 -11 -8 -15 -14 -8 -14 6 0 26 -9 44 -21 18 -12 25 -19 16 -15 -10 3 -41 8
-70 10 -48 5 -49 5 -16 -4 20 -5 51 -19 70 -31 18 -12 24 -18 13 -14 -11 4
-38 9 -60 11 -22 2 -31 1 -20 -3 11 -3 29 -12 40 -19 17 -12 17 -14 2 -14 -25
0 -21 -17 5 -24 25 -6 16 -21 -17 -28 -16 -3 -10 -9 25 -25 l45 -21 -40 5 -40
6 25 -22 25 -22 -27 4 c-40 6 -34 -6 15 -30 l42 -21 -38 5 c-47 7 -47 -1 1
-24 l37 -18 -35 -5 -35 -6 38 -14 c43 -16 50 -36 10 -25 l-28 7 28 -22 c15
-12 27 -27 27 -33 0 -9 -2 -9 -8 -1 -4 6 -20 14 -36 18 -26 6 -28 5 -17 -8 7
-8 28 -20 47 -26 19 -6 34 -15 34 -20 0 -5 -12 -2 -27 5 -16 7 -48 16 -73 19
l-45 6 57 -23 c32 -13 63 -28 70 -35 15 -15 3 -28 -14 -15 -7 6 -29 14 -48 18
-33 7 -34 6 -15 -9 11 -8 28 -16 37 -16 9 0 20 -5 24 -11 4 -7 0 -9 -14 -5
-11 4 -23 2 -26 -3 -4 -5 3 -12 14 -16 27 -8 26 -25 -2 -25 -21 0 -21 0 -2
-21 l19 -22 -38 7 c-45 8 -43 -9 2 -19 16 -3 39 -17 51 -31 27 -28 24 -30 -16
-9 -16 8 -38 15 -49 15 -12 0 2 -12 35 -29 71 -38 76 -55 8 -30 -29 10 -64 19
-78 18 -19 0 -16 -3 16 -13 53 -17 154 -68 154 -78 0 -4 -7 -8 -15 -8 -8 0
-15 4 -15 9 0 5 -12 11 -27 15 -16 3 -39 8 -53 11 -14 3 0 -7 31 -22 52 -27
119 -73 105 -73 -4 0 -29 12 -57 26 -28 14 -54 22 -57 18 -4 -4 -2 -8 3 -10
25 -10 77 -46 72 -51 -3 -3 -22 0 -42 7 -52 17 -54 5 -3 -18 24 -11 57 -32 73
-47 l30 -26 -32 16 c-58 28 -76 12 -20 -18 18 -10 38 -26 45 -37 10 -17 7 -17
-36 4 -70 35 -148 58 -179 54 -25 -4 -24 -5 12 -12 89 -18 113 -27 165 -66 29
-22 47 -40 39 -40 -8 0 -20 5 -27 12 -7 7 -12 8 -12 2 0 -6 11 -21 25 -34 32
-30 27 -34 -18 -15 -42 17 -47 18 -47 7 0 -5 12 -15 28 -22 42 -22 84 -52 78
-57 -2 -3 -20 3 -38 12 -54 29 -62 32 -98 39 -29 6 -24 2 25 -23 71 -36 97
-52 107 -66 13 -18 1 -15 -55 11 -32 14 -65 23 -75 21 -13 -4 -11 -5 6 -6 12
0 22 -5 22 -10 0 -4 19 -16 42 -25 44 -17 94 -53 86 -61 -2 -3 -22 4 -44 14
-22 11 -54 23 -70 26 -25 6 -24 4 11 -15 119 -66 135 -86 39 -51 -80 30 -80
17 -1 -19 37 -17 67 -35 67 -41 0 -7 -7 -8 -18 -4 -59 25 -88 10 -30 -16 17
-8 34 -20 36 -28 5 -14 5 -14 -90 14 -31 10 -62 15 -70 13 -7 -3 14 -13 47
-22 79 -23 155 -56 155 -67 0 -12 -5 -11 -68 5 -45 12 -52 12 -42 1 7 -8 27
-17 46 -21 21 -4 31 -10 27 -18 -3 -6 -3 -8 2 -4 4 4 22 0 39 -9 52 -27 12
-26 -84 2 -50 15 -95 25 -102 23 -12 -4 113 -48 137 -48 8 0 15 -4 15 -9 0 -5
12 -12 26 -15 14 -4 35 -16 46 -26 20 -18 20 -19 2 -16 -20 5 -184 50 -247 68
-20 6 -40 9 -43 6 -3 -4 21 -13 53 -22 136 -37 273 -95 273 -116 0 -12 -13
-13 -25 -1 -10 8 -97 32 -102 28 -1 -2 19 -14 45 -27 129 -68 166 -106 63 -65
-76 29 -87 20 -18 -14 71 -36 78 -41 72 -51 -5 -8 -45 5 -98 32 -11 5 -24 5
-35 -1 -15 -9 -15 -10 3 -11 33 0 155 -66 155 -83 0 -4 -5 -5 -11 -1 -6 4 -28
10 -48 15 -39 8 -39 8 31 -42 13 -10 20 -21 15 -25 -4 -4 -13 -2 -19 4 -7 7
-21 12 -33 12 -18 -1 -17 -3 9 -27 l30 -25 -34 7 c-28 6 -32 5 -27 -9 4 -10 1
-16 -8 -16 -8 0 -15 4 -15 10 0 5 -12 13 -27 16 -16 4 -30 10 -33 14 -9 12
-91 50 -107 50 -24 0 -83 42 -83 60 -1 20 -24 50 -39 50 -6 0 -11 5 -11 10 0
6 -7 10 -15 10 -8 0 -15 5 -15 10 0 6 -11 10 -25 10 -14 0 -25 6 -25 13 0 14
-69 52 -78 43 -10 -11 -41 15 -36 29 4 9 0 15 -10 15 -9 0 -16 -4 -16 -10 0
-5 -20 -10 -44 -10 -42 0 -45 -2 -56 -35 -6 -19 -9 -44 -5 -55 4 -13 2 -20 -7
-21 -7 0 2 -7 20 -15 17 -8 32 -19 32 -24 0 -6 -15 -10 -32 -10 l-33 -1 40
-21 40 -22 -29 -6 -29 -5 39 -14 c21 -8 49 -14 62 -12 14 2 22 -3 22 -13 0
-20 -19 -31 -33 -17 -6 6 -20 11 -31 11 -19 0 -19 0 0 -21 l19 -22 -38 7 c-22
4 -37 3 -37 -3 0 -15 61 -24 90 -13 14 5 34 6 45 1 18 -7 18 -8 -5 -8 -24 -1
-23 -2 10 -23 45 -28 44 -27 39 -33 -3 -2 -28 4 -56 14 -36 13 -62 17 -85 11
l-33 -7 40 -7 c61 -11 115 -28 115 -38 0 -4 7 -8 15 -8 8 0 15 -4 15 -10 0
-13 -4 -13 -70 5 -97 26 -109 15 -17 -17 48 -16 87 -34 87 -39 0 -13 -27 -11
-110 11 -41 11 -84 20 -95 19 -34 0 41 -28 111 -41 54 -10 62 -14 51 -26 -10
-13 -8 -14 10 -8 12 4 24 2 28 -4 12 -19 -1 -22 -42 -10 -62 19 -110 24 -97
11 6 -7 24 -14 39 -17 38 -7 47 -13 41 -29 -3 -8 2 -19 10 -25 14 -12 19 -4
15 23 -3 18 20 5 29 -17 13 -36 35 -46 26 -13 -5 21 -3 25 9 21 8 -4 15 -17
15 -30 0 -15 6 -24 15 -24 8 0 15 7 15 15 0 22 18 18 25 -6 4 -12 12 -18 21
-15 7 3 20 -1 27 -9 11 -11 17 -11 27 -2 10 9 14 9 17 0 3 -7 12 -13 21 -13 9
0 26 -9 38 -21 12 -11 28 -21 35 -23 8 -1 20 -5 26 -9 7 -5 18 -5 23 -2 6 4 9
1 8 -7 -2 -7 8 -14 22 -16 14 -2 30 -10 37 -19 6 -8 16 -12 22 -8 6 3 11 1 11
-5 0 -7 7 -9 16 -6 12 5 14 1 9 -15 -9 -27 13 -53 31 -38 11 9 14 7 14 -8 0
-10 5 -24 12 -31 6 -6 9 -15 5 -19 -4 -3 -22 7 -40 23 -44 41 -95 77 -137 96
-151 70 -459 172 -550 183 -19 3 -60 9 -90 14 -30 5 -132 9 -227 8 -164 -2
-172 -1 -178 18 -6 20 -6 20 -14 0 -5 -11 -6 -25 -4 -31 2 -6 -15 -16 -38 -23
-37 -11 -43 -11 -51 3 -5 9 -13 14 -19 11 -5 -4 -9 3 -9 14 0 14 -5 19 -15 15
-19 -8 -21 -19 20 185 20 97 43 212 51 256 9 44 24 109 34 145 10 36 28 119
41 184 18 94 20 125 11 148 -9 24 -6 40 18 101 16 40 39 117 51 172 11 55 24
105 28 110 10 13 30 86 30 105 -1 8 12 47 29 85 16 39 32 87 36 107 l7 38 -32
-7 c-17 -3 -45 -19 -62 -35 -18 -16 -42 -31 -54 -34 -13 -4 -23 -10 -23 -15 0
-5 -6 -9 -14 -9 -8 0 -23 -10 -33 -23 -10 -12 -31 -31 -48 -41 -49 -32 -66
-52 -59 -70 4 -9 3 -16 -2 -15 -18 4 -50 -15 -89 -54 -22 -22 -34 -36 -27 -33
16 9 16 -13 -2 -55 -7 -19 -17 -55 -20 -81 -5 -33 -12 -48 -22 -48 -14 0 -64
-91 -64 -117 0 -8 -13 -13 -31 -13 -17 0 -28 4 -24 10 4 6 -1 7 -11 3 -14 -5
-16 -2 -12 15 4 15 2 22 -8 22 -20 0 -17 10 10 31 13 10 31 42 40 71 9 29 22
63 28 75 6 12 8 29 4 38 -5 15 -7 15 -21 1 -9 -9 -33 -20 -54 -26 -21 -5 -46
-19 -56 -30 -10 -11 -24 -20 -32 -20 -7 0 -13 -4 -13 -10 0 -5 -7 -10 -15 -10
-8 0 -23 -8 -34 -19 -10 -10 -29 -21 -42 -24 -13 -3 -34 -9 -46 -12 -17 -6
-23 -3 -23 9 0 23 -27 20 -40 -4 -11 -21 -40 -28 -40 -9 0 6 -7 9 -15 5 -22
-8 -18 3 7 23 30 25 15 41 -38 41 -24 0 -44 4 -44 10 0 5 -6 7 -14 4 -8 -3
-14 1 -13 8 0 7 -1 27 -2 43 -2 26 -3 27 -11 10 -5 -11 -9 -31 -9 -45 -1 -23
-5 -25 -49 -28 -26 -1 -59 -5 -73 -8 -22 -4 -27 -2 -25 13 1 16 -10 18 -97 21
-98 3 -98 3 -95 -20 3 -21 9 -23 78 -28 l75 -5 -35 -16 c-19 -9 -54 -31 -77
-48 l-43 -31 0 -885 0 -885 1280 0 c834 0 1280 4 1280 10 0 6 14 10 30 10 17
0 30 -4 30 -10 0 -6 69 -10 188 -10 l189 0 16 40 c8 22 11 40 6 40 -17 0 -9
39 11 50 14 8 20 8 20 0 0 -6 5 -8 11 -5 6 4 8 13 5 20 -2 7 2 16 10 19 28 11
8 -76 -28 -123 -10 -13 -18 -27 -18 -31 0 -3 25 -8 55 -9 54 -2 55 -1 78 36
l22 38 3 -37 3 -38 223 0 222 0 -2 28 c-1 15 -2 33 -3 40 0 7 -9 12 -18 11
-10 -1 -30 1 -45 5 -23 7 -28 14 -28 39 0 29 -16 56 -73 121 -26 29 -50 74
-61 109 -5 15 -12 17 -37 12 -25 -6 -31 -4 -36 14 -3 12 -11 21 -17 21 -13 0
-56 81 -56 104 0 8 -11 21 -23 29 -32 21 -97 82 -97 92 0 4 -11 16 -25 27 -14
11 -25 30 -25 43 0 14 -22 49 -55 88 -30 35 -55 72 -55 81 0 9 -4 16 -10 16
-5 0 -10 13 -10 29 0 16 -7 34 -15 41 -8 7 -15 20 -15 30 0 10 -6 36 -14 58
-13 35 -13 42 0 53 23 19 16 32 -15 27 -23 -3 -28 -1 -23 11 3 9 16 24 29 35
16 12 22 24 18 37 -11 33 6 159 21 159 21 0 19 106 -1 114 -16 6 -21 36 -6 36
5 0 16 3 25 6 13 5 16 -2 16 -35 0 -34 3 -41 20 -41 17 0 20 7 20 40 0 22 -3
40 -7 40 -5 0 -19 19 -33 41 -20 33 -29 39 -47 34 -13 -3 -23 -1 -23 5 0 5 -7
10 -15 10 -10 0 -15 10 -15 30 0 27 4 30 40 36 43 7 53 27 21 43 -21 12 -31 5
-31 -21 0 -10 -7 -18 -15 -18 -8 0 -15 8 -15 18 0 10 -7 28 -16 40 -14 20 -14
22 0 22 9 0 16 7 16 15 0 8 -4 15 -9 15 -14 0 -23 37 -16 61 4 11 12 18 18 16
15 -6 57 10 57 21 0 5 -11 15 -25 22 -20 11 -25 21 -25 52 0 38 0 38 40 38 22
0 40 5 40 10 0 6 18 10 40 10 25 0 40 5 40 13 0 14 75 21 145 13 29 -3 65 -25
65 -39 1 -32 70 -79 70 -47 0 15 56 12 97 -5 44 -19 54 -19 47 -1 -4 9 5 15
25 18 26 4 33 0 43 -24 14 -30 36 -36 56 -16 9 9 15 9 24 0 9 -9 9 -12 0 -12
-7 0 -12 -4 -12 -10 0 -5 10 -9 22 -7 18 2 23 -4 28 -33 3 -20 10 -41 14 -48
11 -18 28 -15 25 6 -3 20 17 72 28 72 4 0 20 -12 35 -27 23 -22 36 -26 70 -24
24 1 44 -3 49 -10 5 -9 11 -10 21 -2 7 6 52 11 99 11 67 0 86 -3 86 -14 0 -10
-12 -14 -38 -14 -21 0 -41 -5 -45 -11 -5 -9 7 -10 44 -5 34 4 52 3 52 -4 0
-14 27 -13 33 3 3 9 35 12 117 12 62 0 105 -1 96 -3 -29 -6 -17 -19 23 -26 22
-3 41 -10 43 -15 1 -5 17 -12 33 -16 l30 -6 -32 17 c-44 22 -47 64 -5 65 23 0
24 2 8 8 -12 5 -15 10 -9 14 10 6 257 12 278 6 6 -1 26 -3 45 -3 26 -1 37 -7
45 -24 5 -12 15 -22 22 -22 16 0 17 12 1 28 -9 9 -5 12 18 12 27 0 64 25 64
43 0 4 -11 7 -24 7 -14 0 -28 5 -31 10 -4 6 6 10 24 10 16 0 33 -4 36 -10 9
-14 61 -13 104 3 54 18 84 61 39 55 -16 -2 -24 3 -26 16 -3 16 0 18 26 13 16
-3 34 -1 40 5 13 13 142 16 192 5 l35 -8 -30 16 c-16 9 -36 22 -44 30 -12 12
-8 14 27 12 22 -1 44 -6 48 -10 11 -11 44 -8 44 4 0 5 5 7 10 4 6 -4 8 -15 5
-26 -8 -23 29 -34 82 -26 43 7 50 14 35 29 -17 17 -15 48 4 48 12 0 15 -6 11
-21 -7 -26 21 -39 37 -17 6 9 20 17 31 19 14 3 20 13 20 32 1 17 10 33 24 43
14 10 19 19 12 23 -6 4 1 18 19 35 21 19 30 23 30 13 0 -9 -6 -18 -12 -20 -10
-4 -9 -8 2 -16 23 -17 37 -13 45 12 l8 22 4 -22 c3 -15 9 -20 19 -16 13 5 15
-2 11 -40 -3 -26 -2 -46 1 -46 38 6 42 -1 42 -69 0 -55 -4 -74 -21 -93 -16
-19 -19 -31 -13 -62 4 -26 3 -37 -4 -33 -14 8 -42 -21 -42 -44 0 -18 -35 -89
-49 -100 -22 -17 -71 -91 -71 -108 0 -13 -10 -24 -29 -30 -16 -6 -34 -20 -40
-31 -7 -11 -21 -31 -34 -44 -39 -41 -56 -65 -59 -84 -2 -10 -12 -23 -23 -28
-11 -6 -24 -20 -30 -33 -5 -12 -14 -22 -19 -22 -12 0 -42 -36 -55 -68 -6 -15
-27 -37 -46 -50 -26 -16 -35 -29 -35 -50 0 -17 -13 -42 -37 -68 -61 -66 -73
-83 -73 -103 0 -11 -5 -21 -12 -23 -7 -3 -13 -26 -14 -53 -2 -39 -7 -54 -28
-72 -19 -16 -26 -32 -26 -56 0 -19 -7 -40 -15 -47 -19 -15 -65 -98 -65 -117 0
-7 -15 -36 -34 -64 -19 -27 -38 -58 -41 -69 -4 -11 -10 -20 -15 -20 -5 0 -20
-25 -34 -55 -14 -30 -30 -55 -35 -55 -6 0 -11 -10 -11 -23 0 -31 -27 -67 -51
-67 -10 0 -19 -4 -19 -10 0 -5 -7 -10 -14 -10 -8 0 -21 -12 -28 -27 -10 -21
-21 -28 -47 -30 -39 -3 -60 -26 -53 -58 5 -27 -14 -65 -32 -65 -7 0 -21 -9
-31 -20 -18 -20 -17 -20 197 -20 l216 0 17 36 c17 36 20 38 68 48 20 5 27 3
27 -9 0 -8 7 -15 15 -15 8 0 32 -9 52 -20 54 -29 90 -26 123 10 23 24 28 41
34 106 7 73 44 183 63 185 5 0 28 2 53 4 35 3 50 10 68 32 13 15 36 43 53 60
16 18 29 36 30 40 0 5 9 18 21 30 20 22 18 43 -6 43 -20 0 -7 48 17 65 14 10
47 15 97 15 95 0 125 7 109 26 -9 12 -3 14 37 15 27 1 38 3 24 6 -62 9 -75 14
-60 23 8 4 38 11 65 15 l50 8 -37 10 c-47 11 -51 36 -5 28 5 -1 6 8 2 19 -6
18 -2 20 44 20 52 0 74 19 24 21 l-28 0 24 10 c14 5 33 8 44 7 11 -2 22 3 24
10 3 7 -4 12 -16 12 -12 0 -21 5 -21 10 0 6 11 10 24 10 16 0 27 7 31 20 4 14
15 20 36 20 16 0 29 5 29 11 0 6 7 9 15 5 8 -3 15 -1 15 4 0 6 7 10 16 10 9 0
23 8 31 18 10 12 16 14 19 5 3 -7 22 -13 41 -13 30 0 34 2 23 15 -17 20 -4 35
32 35 22 0 29 4 25 14 -7 17 13 26 53 26 16 0 32 4 35 10 6 9 -58 16 -107 12
-10 -1 -18 2 -18 7 0 5 31 12 70 15 38 4 73 12 76 18 5 8 -8 9 -44 5 -28 -3
-54 -2 -57 2 -5 9 43 22 88 23 32 1 36 13 7 21 -38 10 -20 25 31 25 28 1 54 3
57 6 3 3 -6 6 -20 6 -29 0 -62 30 -40 37 6 3 12 11 12 20 0 10 -6 12 -20 8
-14 -4 -20 -2 -20 9 0 19 17 30 23 14 3 -10 8 -10 21 2 17 13 17 15 -3 31 -21
18 -21 18 21 27 l43 10 -43 1 c-39 1 -42 3 -32 20 5 11 7 28 3 38 -6 16 -8 15
-14 -7 l-6 -25 -11 28 c-14 34 -30 35 -42 1 -6 -14 -15 -22 -21 -19 -10 7 -79
-59 -79 -76 0 -5 -26 -8 -57 -8 -32 1 -50 3 -40 6 38 10 14 23 -45 25 -54 1
-56 2 -18 5 24 3 50 9 57 15 7 5 17 7 23 3 5 -3 16 -3 23 2 8 5 2 9 -17 13
-38 6 -40 24 -3 28 15 2 27 8 27 13 0 6 -8 9 -17 8 -10 -1 -27 0 -38 1 -19 1
-19 2 3 12 36 18 26 30 -18 23 -24 -4 -40 -3 -40 3 0 10 60 23 138 31 7 0 10
6 6 12 -3 6 -22 9 -40 7 -19 -2 -31 -1 -26 3 4 4 21 9 37 11 22 2 29 8 27 20
-1 9 8 24 20 33 15 12 17 15 6 12 -24 -8 -23 5 1 20 10 7 21 29 25 53 5 31 12
43 31 50 14 5 25 16 25 25 0 10 10 15 28 15 47 0 3 20 -48 21 l-45 1 30 13
c17 7 33 11 38 8 11 -7 67 7 67 17 0 16 -33 20 -60 6 l-28 -13 3 34 c4 41 9
47 29 40 10 -4 13 -13 9 -23 -4 -12 -1 -15 18 -12 18 2 24 9 24 28 0 19 -6 26
-30 31 -21 5 -24 7 -9 8 27 1 51 27 32 33 -10 4 -11 8 -1 20 7 8 10 18 6 22
-4 4 3 9 15 13 25 6 30 23 7 23 -8 0 -15 5 -15 10 0 6 7 10 15 10 21 0 19 20
-2 21 -14 1 -14 2 3 7 21 7 21 7 2 37 -10 17 -18 23 -18 15 -1 -13 -2 -13 -10
1 -11 19 -2 59 14 59 18 0 39 67 43 135 5 84 5 85 20 85 7 0 13 5 13 10 0 6
-4 10 -9 10 -5 0 -8 11 -7 25 0 14 7 25 14 25 6 0 12 5 12 10 0 6 -4 10 -9 10
-14 0 -20 39 -14 91 5 39 10 49 24 49 24 0 25 29 2 46 -15 11 -16 16 -5 31 6
10 16 28 21 40 6 11 13 23 18 26 5 3 7 26 5 51 -3 35 -8 46 -21 46 -10 0 -12
3 -5 8 6 4 10 15 8 25 -2 14 5 17 36 17 66 0 81 14 21 20 -50 5 -55 8 -64 35
-6 17 -13 32 -17 35 -17 12 -41 74 -36 92 2 12 -2 27 -11 36 -18 19 -11 108
12 156 8 16 15 36 15 45 0 9 6 25 13 36 8 11 38 65 67 120 29 55 59 111 67
125 7 14 13 39 13 55 0 17 7 57 15 88 8 32 15 71 15 87 0 18 5 30 13 30 7 0
21 14 31 30 15 26 16 36 6 66 -7 19 -9 42 -6 51 4 8 1 30 -5 48 -10 26 -9 42
3 81 10 30 14 69 11 102 -2 28 -1 52 4 52 5 0 16 -24 25 -52 l16 -53 0 55 c0
30 -5 80 -13 110 -20 86 -25 121 -16 116 4 -3 11 24 14 60 2 36 10 71 17 77
10 10 11 2 6 -33 -6 -45 -6 -45 10 -17 8 15 11 33 7 40 -11 18 -13 186 -2 192
5 4 10 -17 10 -47 l2 -53 9 55 c6 30 19 73 29 96 23 49 24 76 3 120 -10 20
-13 41 -9 51 7 16 9 15 14 -7 15 -53 17 15 5 120 -18 150 -18 194 1 186 10 -4
16 2 17 17 2 25 5 56 7 75 0 6 8 12 16 12 11 0 15 12 15 47 0 29 6 53 17 65
15 17 15 18 -2 18 -13 0 -16 5 -11 23 4 12 12 52 18 90 12 75 28 89 28 25 0
-32 3 -39 10 -28 11 17 13 63 3 74 -4 3 -7 26 -8 49 0 23 -8 57 -18 76 -22 43
-21 48 1 28 16 -15 18 -15 20 6 1 12 3 75 3 140 0 77 4 115 11 111 12 -8 68
51 68 71 0 8 7 18 16 23 8 5 24 44 35 88 19 72 20 86 8 169 -22 154 -16 256
12 215 7 -11 8 -5 4 19 -5 23 -4 31 4 27 7 -5 11 2 11 18 0 13 6 31 14 38 7 8
16 34 19 59 7 53 32 163 41 178 4 6 13 11 19 11 13 0 57 89 77 158 7 23 17 42
22 42 4 0 8 14 8 30 0 17 5 30 10 30 6 0 10 16 10 36 0 40 16 77 31 69 5 -4
15 0 22 7 10 10 13 45 13 127 -1 73 3 116 10 118 6 2 8 17 6 33 -3 19 0 30 8
30 8 0 10 8 5 23 -3 12 -11 76 -16 142 -4 66 -11 145 -15 175 l-7 55 37 -39
c20 -22 36 -46 36 -53 0 -7 5 -13 10 -13 13 0 13 27 1 35 -12 7 -102 193 -107
220 -1 6 -2 21 -3 35 -1 18 -4 21 -10 11 -5 -8 -11 -9 -15 -3 -3 6 -2 13 4 17
17 10 -1 69 -30 95 -16 14 -30 39 -33 55 -10 56 -57 178 -77 200 -11 12 -20
32 -20 46 0 17 3 20 9 11 15 -24 19 19 9 93 -24 175 -117 301 -303 405 -72 40
-159 129 -185 187 -24 53 -88 124 -163 179 l-57 43 80 7 c44 3 80 10 80 15 0
4 -38 5 -84 2 -88 -6 -156 1 -156 17 0 6 12 11 28 11 l27 1 -25 7 c-61 16
-111 44 -105 58 4 12 -1 14 -27 9 -34 -6 -33 -7 -114 63 -11 10 -46 37 -78 60
-55 41 -71 65 -28 42 32 -17 48 -14 30 7 -9 9 -14 22 -11 28 2 7 -16 14 -46
18 -46 6 -73 16 -111 41 -12 8 -6 11 25 16 l40 6 -48 2 c-40 1 -55 8 -103 46
-52 43 -240 145 -265 145 -7 0 -36 21 -64 48 -87 78 -119 106 -136 117 -8 5
-31 20 -50 32 -19 12 -39 26 -46 32 -6 6 -33 15 -60 22 -26 6 -62 17 -79 25
-40 17 -168 37 -207 31 -28 -4 -29 -3 -11 10 11 9 36 13 61 11 48 -3 48 6 1
17 l-33 8 30 7 30 8 -35 0 c-19 0 -43 -2 -52 -5z m-2275 -835 c3 -10 9 -10 27
0 12 7 24 11 27 8 8 -7 -45 -76 -63 -83 -8 -3 -14 -13 -14 -24 0 -33 -21 -65
-51 -76 -26 -10 -29 -10 -19 3 10 12 8 14 -16 14 -23 0 -26 -2 -14 -10 13 -9
13 -11 0 -20 -8 -6 -24 -8 -35 -5 -11 2 -27 5 -35 5 -9 0 -16 9 -17 20 -1 13
19 36 62 70 34 27 68 50 74 50 6 0 20 14 33 30 24 33 34 37 41 18z m-363 -505
c0 -10 -11 -40 -25 -68 -13 -27 -25 -56 -25 -62 0 -7 -5 -13 -11 -13 -6 0 -22
-13 -36 -30 -13 -16 -30 -30 -37 -30 -13 0 -53 -37 -106 -99 -19 -23 -40 -41
-47 -41 -7 0 -13 -4 -13 -9 0 -9 -75 -123 -103 -156 -9 -11 -23 -29 -31 -40
-28 -39 -29 -4 -1 58 66 146 128 245 207 332 65 71 166 148 185 141 8 -3 11
-1 8 4 -8 14 3 30 21 30 8 0 14 -8 14 -17z m-536 -692 c-8 -16 -21 -34 -29
-41 -7 -6 -12 -17 -9 -24 3 -7 -3 -19 -13 -27 -16 -13 -17 -12 -4 4 16 20 11
30 -12 22 -13 -6 -27 -37 -32 -70 0 -5 -6 -9 -13 -7 -7 1 -12 -9 -12 -24 0
-31 -50 -84 -79 -84 -14 0 -21 -6 -21 -19 0 -11 -11 -28 -25 -39 -13 -11 -22
-22 -19 -25 3 -3 -3 -3 -15 0 -15 4 -23 -1 -30 -19 -10 -26 -41 -57 -41 -41 0
6 8 21 18 34 10 13 21 31 24 40 4 9 21 20 40 24 22 5 27 9 16 12 -27 7 -22 24
19 73 52 62 232 240 243 240 5 0 2 -13 -6 -29z m-224 -355 c0 -8 -13 -28 -30
-44 -18 -19 -25 -32 -18 -34 9 -3 8 -18 -3 -59 l-14 -54 -73 -3 c-39 -2 -72 0
-72 4 0 17 55 104 66 104 7 0 29 16 50 35 20 19 45 35 54 35 10 0 20 7 24 15
7 19 16 19 16 1z m-266 -235 c11 -10 11 -20 -1 -64 -9 -28 -16 -53 -17 -54 -4
-5 -105 35 -133 52 -32 20 -42 35 -23 35 5 0 26 12 47 26 30 20 46 25 76 21
21 -3 44 -10 51 -16z m183 -25 c1 -1 -3 -19 -9 -39 -7 -22 -18 -37 -27 -37
-13 -1 -12 -3 3 -15 20 -15 20 -15 0 -30 -22 -17 -81 -12 -127 12 -30 15 -30
20 -1 92 l14 33 72 -7 c40 -4 74 -8 75 -9z m-280 -90 c69 -34 160 -63 223 -69
19 -3 35 -9 34 -16 -1 -6 -2 -17 -2 -24 -2 -16 -97 -23 -106 -8 -4 5 -30 17
-59 26 -59 20 -81 35 -51 36 11 0 2 7 -21 15 -21 8 -42 18 -45 22 -3 4 -14 12
-24 18 -18 10 -34 34 -23 34 3 0 36 -15 74 -34z m23 -93 c36 -16 102 -40 148
-53 72 -21 82 -27 80 -44 -3 -18 -10 -21 -58 -21 -30 1 -68 5 -85 9 l-30 9 25
7 25 8 -32 13 c-18 7 -33 19 -33 26 0 7 -7 13 -16 13 -8 0 -13 -4 -10 -9 7
-10 -42 -21 -60 -14 -7 3 -16 13 -19 23 -3 10 -17 25 -30 34 -14 9 -25 23 -25
31 0 17 29 10 120 -32z m2633 -128 c58 -88 117 -165 176 -230 19 -20 18 -21
-8 -19 -18 0 -26 6 -26 19 0 10 -5 20 -11 22 -8 3 -14 -24 -19 -79 l-7 -82
-29 32 c-16 18 -32 32 -35 32 -3 0 -15 11 -25 24 -10 13 -28 26 -39 29 -26 7
-26 -5 0 -21 11 -7 20 -21 20 -32 0 -11 6 -20 13 -20 7 0 21 -15 31 -32 l18
-33 -23 26 c-13 14 -35 33 -49 41 -14 9 -36 37 -50 62 -27 54 -40 66 -40 38 0
-18 12 -47 35 -82 13 -21 17 -50 6 -50 -6 0 -13 5 -16 10 -4 6 -10 8 -14 6 -4
-3 -23 4 -42 16 -29 18 -31 22 -16 27 15 6 11 11 -22 33 -43 28 -52 27 -24 -4
27 -30 8 -31 -48 -2 -29 14 -86 32 -127 39 -81 14 -95 22 -69 36 29 17 57 52
57 72 0 15 5 18 25 15 35 -7 53 17 31 40 -9 10 -16 28 -16 40 0 12 -5 22 -11
22 -5 0 -7 5 -4 10 4 6 10 8 15 5 4 -3 13 1 19 8 6 8 36 20 66 27 30 7 55 17
55 22 0 4 14 8 31 8 17 0 39 5 50 10 14 8 19 7 19 -2 0 -9 3 -9 12 0 10 10 10
17 0 32 -6 11 -12 23 -12 26 0 10 30 -31 103 -141z m599 30 c26 -33 88 -60 99
-44 8 14 75 -13 81 -33 2 -6 31 -13 64 -16 46 -3 67 -11 96 -33 38 -30 77 -38
79 -16 0 6 5 -1 11 -17 8 -22 7 -30 -3 -37 -9 -7 -5 -8 13 -3 17 3 35 0 52
-11 31 -20 32 -29 9 -53 -24 -23 -53 -69 -53 -81 0 -18 -81 -91 -100 -91 -11
0 -24 8 -29 18 -7 11 -11 12 -11 4 0 -13 -24 -42 -34 -42 -3 0 -6 8 -6 19 0
26 -42 23 -46 -4 -2 -11 2 -22 7 -26 6 -3 4 -11 -6 -19 -11 -9 -15 -9 -15 -1
0 7 -7 19 -15 27 -9 10 -13 25 -10 42 l6 27 -17 -22 c-9 -13 -21 -23 -26 -23
-5 0 7 19 26 42 20 23 36 48 36 56 0 9 -2 13 -4 11 -2 -2 -20 -23 -39 -47 -20
-23 -38 -38 -42 -32 -3 5 -1 10 4 10 6 0 11 5 11 10 0 18 -19 10 -25 -11 -5
-13 -2 -25 6 -29 8 -6 0 -11 -24 -15 -20 -4 -37 -12 -37 -17 0 -6 -9 -8 -20
-5 -11 3 -20 1 -20 -4 0 -5 -11 -8 -25 -6 -26 3 -29 9 -19 40 3 10 4 21 1 23
-8 9 -37 -8 -37 -22 0 -18 -20 -17 -44 1 -16 12 -17 17 -6 30 17 21 4 32 -20
17 -17 -10 -28 -5 -84 43 -35 30 -74 70 -85 89 -12 19 -28 37 -36 40 -12 4
-34 44 -84 151 -2 6 3 4 12 -4 15 -12 16 -11 11 15 -8 41 15 70 44 55 11 -6
33 -11 47 -11 14 0 35 -4 45 -10 14 -7 23 -6 34 6 11 11 25 13 51 8 22 -4 35
-2 35 4 0 6 24 13 53 15 28 2 56 4 61 5 4 1 17 -9 28 -23z m1967 -602 c21 -14
22 -17 8 -28 -14 -10 -12 -12 13 -12 17 0 30 4 30 9 0 13 24 9 46 -6 18 -14
18 -16 2 -43 -9 -16 -16 -37 -15 -48 2 -16 -3 -19 -23 -17 -20 2 -22 0 -12
-10 21 -21 66 11 70 50 3 26 8 32 28 32 24 0 32 -14 14 -25 -12 -7 19 -54 37
-55 19 0 54 -52 48 -71 -4 -11 1 -21 13 -28 11 -6 22 -26 26 -48 23 -129 28
-173 31 -308 3 -82 7 -215 9 -295 6 -159 -7 -381 -30 -560 -9 -63 -19 -153
-24 -200 -4 -47 -14 -108 -23 -137 -9 -29 -13 -68 -10 -91 4 -27 -1 -53 -15
-84 -11 -25 -25 -85 -32 -134 -7 -49 -19 -96 -26 -104 -8 -9 -10 -21 -5 -29
14 -22 -19 -69 -43 -63 -12 3 -18 1 -14 -3 4 -4 0 -21 -8 -36 -12 -24 -18 -28
-33 -20 -23 13 -71 -16 -50 -30 22 -14 -7 -28 -50 -24 -46 4 -53 -1 -38 -26
10 -16 9 -21 -3 -29 -12 -8 -13 -13 -2 -30 29 -47 9 -53 -36 -9 -30 30 -59 32
-48 3 3 -8 1 -14 -4 -14 -6 0 -10 4 -10 9 0 5 -8 8 -17 7 -13 -1 -19 9 -23 34
-4 27 -10 36 -27 38 -18 3 -23 -2 -23 -17 0 -12 5 -21 11 -21 6 0 9 -6 6 -12
-6 -18 -45 -10 -79 15 -22 16 -31 18 -40 9 -9 -9 -8 -12 5 -12 12 0 17 -8 17
-30 0 -34 -6 -36 -37 -15 -20 14 -22 14 -28 -5 -3 -11 -3 -25 0 -30 4 -7 -3
-8 -22 -4 -34 9 -73 33 -73 46 0 5 -20 8 -44 7 -37 -2 -49 2 -72 24 -17 18
-34 25 -45 22 -12 -4 -22 1 -29 14 -15 30 -76 57 -94 42 -11 -9 -16 -9 -21 -1
-4 7 -16 10 -26 7 -12 -3 -19 0 -19 9 0 16 -36 37 -50 29 -5 -3 -12 -1 -15 5
-5 8 -11 7 -22 -2 -12 -10 -17 -9 -24 4 -7 13 -16 14 -48 7 -21 -5 -50 -13
-63 -18 -29 -11 -44 -4 -49 23 -5 27 -29 33 -29 7 0 -30 -17 -26 -34 8 -15 28
-45 45 -77 42 -21 -2 -59 45 -59 73 -1 21 -1 21 -17 1 -15 -19 -15 -19 -9 13
3 18 2 31 -3 28 -5 -3 -15 2 -22 11 -12 14 -11 15 11 9 14 -4 33 -10 42 -12
13 -4 15 -13 11 -41 -5 -28 -3 -35 8 -31 26 9 21 45 -11 82 -30 34 -70 49 -70
26 0 -5 -4 -10 -10 -10 -17 0 -11 37 6 44 16 6 16 8 0 24 -20 23 -21 36 -2 29
13 -5 46 21 46 35 0 3 16 22 35 41 19 19 35 42 35 50 0 8 7 17 15 21 8 3 15
12 15 21 0 18 -12 19 -27 4 -9 -9 -20 -9 -44 0 -72 25 -146 8 -209 -49 -25
-23 -55 -48 -67 -57 -13 -8 -23 -21 -23 -27 0 -7 -25 -40 -55 -74 -31 -34 -51
-63 -45 -67 5 -3 10 -13 10 -21 0 -14 -2 -13 -16 0 -19 20 -28 20 -44 1 -7 -8
-19 -15 -26 -15 -8 0 -14 -6 -14 -14 0 -23 -42 -43 -105 -49 -57 -6 -59 -6
-30 8 17 8 38 14 48 15 25 0 24 50 -2 50 -11 0 -26 3 -35 6 -12 4 -16 0 -16
-15 0 -19 -6 -21 -59 -21 -43 0 -65 5 -84 20 -14 11 -28 20 -31 20 -3 0 -16
10 -29 23 -67 63 -94 85 -116 92 -13 4 -60 35 -105 69 -106 82 -217 146 -253
146 -15 0 -45 -3 -66 -7 -37 -6 -39 -7 -32 -37 3 -17 9 -56 11 -86 3 -30 12
-62 20 -71 12 -13 12 -23 -2 -68 -8 -29 -13 -55 -11 -58 3 -2 -1 -20 -9 -38
-18 -44 -18 -56 2 -48 12 4 15 2 12 -8 -2 -8 -13 -15 -24 -17 -11 -2 -38 -19
-59 -38 l-40 -35 -5 28 c-5 23 -7 25 -15 12 -14 -23 -62 -52 -77 -46 -7 3 -32
-6 -56 -20 -36 -21 -43 -22 -48 -8 -9 22 -41 19 -67 -7 -13 -13 -34 -23 -48
-23 -20 1 -41 -17 -90 -72 l-64 -72 -8 29 c-10 41 -17 38 -10 -5 5 -34 -9 -49
-21 -22 -5 9 -7 9 -12 0 -3 -7 -18 -13 -34 -13 -16 0 -30 -5 -32 -12 -5 -14
-94 -37 -119 -31 -11 3 -19 11 -19 18 0 7 -6 15 -12 18 -10 4 -10 7 0 18 9 9
12 10 12 1 0 -7 5 -12 12 -12 9 0 9 3 0 12 -14 14 -16 65 -4 70 5 2 12 20 15
41 5 30 3 37 -11 38 -29 2 -45 -2 -59 -17 -8 -8 -19 -14 -24 -14 -5 0 -9 -8
-10 -17 0 -15 -2 -14 -11 4 -13 27 -36 37 -54 22 -11 -9 -14 -6 -14 19 0 64
-36 102 -68 70 -8 -8 -12 -9 -12 -1 0 6 6 14 13 17 9 3 8 8 -5 18 -17 14 -15
63 4 74 5 3 4 12 -3 20 -9 11 -8 18 5 32 9 10 13 22 9 25 -11 12 -23 8 -23 -9
0 -8 -5 -12 -11 -8 -8 4 -8 9 0 17 6 6 11 17 11 25 0 8 10 22 21 31 16 13 20
23 14 40 -5 18 -9 20 -21 10 -12 -9 -14 -5 -14 26 0 33 2 36 15 25 26 -21 38
1 28 51 l-9 44 -58 3 -59 3 6 -40 c6 -49 -11 -55 -41 -16 -11 14 -24 25 -29
25 -5 0 -22 13 -36 30 -27 30 -35 46 -18 35 5 -3 12 -1 16 5 4 6 -5 10 -20 10
-16 0 -35 10 -46 23 -22 27 -24 37 -4 37 8 0 15 5 15 10 0 6 -7 10 -16 10 -14
0 -16 9 -12 52 3 29 1 63 -5 75 -10 22 -11 22 -29 7 -17 -16 -18 -16 -20 2 0
10 0 27 1 38 0 10 -7 25 -16 32 -17 13 -17 15 -1 25 24 13 24 47 1 45 -15 -1
-19 9 -21 56 -2 32 3 76 12 100 12 37 12 44 0 51 -10 6 -14 28 -14 76 0 37 -3
71 -7 74 -3 4 -6 25 -5 47 0 22 1 85 1 141 1 96 2 100 21 94 22 -7 26 6 10 35
-7 14 -6 29 7 54 17 37 33 47 33 21 0 -22 57 -20 64 3 3 9 3 -13 0 -50 l-5
-68 31 0 c16 0 30 5 30 10 0 6 5 10 10 10 6 0 10 -15 10 -34 0 -25 8 -43 31
-65 37 -38 49 -39 49 -6 0 14 4 25 9 25 5 0 18 -11 29 -25 20 -25 42 -33 42
-15 0 15 77 12 103 -4 12 -7 41 -16 64 -20 36 -5 44 -3 57 16 9 12 16 33 16
46 0 21 3 22 38 16 20 -4 39 -10 42 -13 7 -9 496 -6 562 3 32 5 63 15 69 22
12 15 44 20 35 5 -3 -5 0 -14 7 -20 10 -7 17 -5 29 9 33 37 92 -7 66 -50 -7
-11 -19 -20 -26 -20 -7 0 -20 -7 -28 -15 -9 -8 -11 -15 -5 -15 6 0 11 -11 11
-24 0 -22 3 -24 33 -19 l32 5 -24 -26 c-24 -25 -24 -26 -6 -46 10 -11 26 -20
35 -20 10 0 24 -7 31 -16 11 -13 10 -17 -4 -25 -9 -6 -17 -15 -17 -21 0 -6
-18 -29 -41 -51 -37 -37 -40 -43 -32 -71 6 -19 5 -44 -1 -65 -9 -30 -8 -35 17
-53 22 -16 25 -23 16 -34 -14 -17 -3 -34 20 -34 24 0 34 -51 20 -105 -26 -101
-26 -102 27 -51 20 19 50 38 67 42 18 3 38 11 45 17 9 7 16 7 24 -1 20 -20 47
-14 54 13 3 14 12 25 20 25 8 0 14 7 14 15 0 8 3 15 8 15 4 0 8 10 9 23 15
130 14 129 34 124 10 -3 19 -1 19 4 0 5 -5 9 -12 9 -6 0 -3 10 9 23 31 35 64
98 61 117 -2 9 2 28 8 41 19 39 33 100 39 169 5 59 26 141 45 180 4 9 11 31
15 49 9 43 109 210 136 229 16 11 20 21 15 43 -3 16 -2 28 2 28 33 -5 35 1 30
86 -3 47 -11 91 -16 98 -6 7 -10 26 -10 43 1 17 -3 37 -7 44 -5 8 -4 11 3 6 6
-3 23 6 39 21 24 24 28 35 25 72 -3 35 0 43 12 38 8 -3 17 -3 19 1 2 4 2 1 0
-7 -2 -7 2 -20 8 -27 9 -11 9 -17 0 -28 -11 -13 -5 -46 9 -46 4 0 15 18 25 40
10 22 26 47 36 56 22 20 25 7 4 -20 -19 -25 -19 -36 0 -36 9 0 20 11 25 25 5
14 12 25 16 25 3 0 3 -11 0 -25 -7 -26 8 -35 18 -12 4 6 4 2 2 -11 -4 -24 -1
-23 46 11 22 17 30 18 43 7 24 -20 19 -43 -9 -36 -36 9 -54 -18 -27 -41 26
-22 27 -59 2 -73 -15 -7 -23 -6 -35 5 -21 22 -31 0 -13 -29 14 -20 13 -23 -4
-34 -24 -15 -52 -15 -67 0 -9 9 -12 5 -12 -21 0 -27 3 -32 16 -27 19 7 47 -12
38 -25 -13 -22 -6 -150 10 -174 9 -13 16 -33 16 -45 0 -11 5 -20 10 -20 6 0
10 -11 10 -25 0 -14 9 -34 20 -45 11 -11 20 -22 20 -25 0 -2 13 -33 29 -67 15
-35 32 -74 36 -88 4 -14 20 -41 35 -60 15 -19 40 -58 55 -87 16 -28 39 -64 52
-79 12 -15 23 -34 23 -43 0 -9 7 -27 16 -40 25 -35 24 -193 0 -243 -11 -23
-15 -45 -11 -55 5 -10 7 -28 6 -40 -3 -31 9 -49 20 -32 6 10 9 11 9 2 0 -7 10
-13 21 -13 19 0 20 2 8 16 -12 15 -11 16 11 9 14 -4 31 -16 38 -26 7 -11 19
-19 26 -19 7 0 22 -11 32 -25 10 -14 24 -25 29 -25 17 0 45 -90 46 -145 0 -44
2 -47 10 -25 15 36 3 106 -26 156 -14 23 -25 48 -25 54 0 7 -9 23 -20 37 -21
28 -26 53 -10 53 6 0 10 -6 10 -13 0 -8 17 -12 53 -11 l52 0 3 40 c2 32 -2 44
-23 64 -26 24 -33 54 -14 65 19 13 30 58 23 103 -6 37 -12 46 -38 58 -27 11
-28 13 -8 14 19 0 21 3 12 19 -7 13 -7 22 0 26 5 3 10 -2 11 -12 0 -10 3 -13
6 -5 2 6 16 12 29 12 14 0 22 4 19 10 -4 6 12 10 39 10 25 0 46 -4 46 -10 0
-5 -7 -10 -15 -10 -8 0 -15 -6 -15 -14 0 -14 42 -26 92 -26 17 0 27 -4 23 -10
-3 -6 1 -7 9 -4 11 4 16 0 16 -15 0 -18 6 -21 39 -21 22 0 43 -4 46 -10 9 -14
38 -12 59 3 15 11 17 17 7 35 -6 12 -18 22 -26 22 -8 0 -15 5 -15 10 0 6 -9
10 -20 10 -16 0 -20 7 -20 30 0 17 5 30 10 30 12 0 71 40 82 55 4 6 33 5 78
-3 39 -7 88 -12 110 -12 53 0 90 -16 90 -38 0 -22 19 -42 39 -42 8 0 32 -12
53 -26 21 -15 41 -24 45 -20 3 3 1 6 -5 6 -7 0 -12 5 -12 10 0 6 15 10 34 10
18 0 46 4 62 9 16 5 55 12 87 16 40 4 57 11 57 21 0 11 15 14 65 14 l66 0 -3
35 c-2 39 6 52 24 37 10 -8 13 2 12 49 -1 46 2 59 12 55 17 -7 38 20 30 39 -3
9 1 32 9 52 12 29 19 70 25 145 0 4 9 10 20 13 25 8 27 53 3 70 -9 7 -13 17
-8 24 5 9 10 10 18 2 15 -15 24 -14 31 4 4 11 -3 19 -19 25 -18 7 -25 17 -25
35 0 14 -7 39 -16 56 -11 23 -20 29 -35 24 -11 -4 -19 -2 -19 4 0 6 5 11 12
11 6 0 4 8 -7 20 -9 10 -20 18 -24 17 -3 -1 -7 3 -9 8 -7 24 34 15 55 -11 13
-16 23 -24 23 -17 0 22 -12 43 -26 43 -21 0 -17 18 11 48 26 28 29 39 19 65
-5 13 -9 12 -26 -5 -19 -19 -20 -22 -5 -33 9 -7 14 -15 10 -18 -11 -11 -34 -8
-49 7 -11 12 -12 16 -1 23 12 8 41 63 35 68 -2 1 -14 9 -28 18 l-24 17 26 0
c14 0 28 7 32 15 3 8 1 15 -4 15 -6 0 -10 14 -10 30 0 20 -5 30 -15 30 -8 0
-12 6 -9 14 3 7 -6 23 -21 34 -26 20 -26 21 -4 24 22 3 22 4 5 21 -23 23 1 23
33 0z m-3149 -389 c0 -4 -5 -24 -12 -45 -15 -52 3 -134 43 -188 29 -40 36 -57
22 -48 -5 3 -26 8 -48 11 -67 11 -114 26 -127 41 -7 8 -25 28 -40 45 -47 51
-28 114 44 147 96 44 118 51 118 37z m508 -74 c31 -16 70 -40 86 -54 27 -22
27 -25 15 -52 -11 -22 -24 -31 -54 -37 -22 -5 -74 -18 -116 -28 -41 -10 -78
-19 -81 -19 -4 0 9 26 28 57 27 46 34 67 34 110 0 64 7 65 88 23z m1489 -80
c-6 -24 1 -25 23 -5 9 8 25 12 38 8 19 -4 22 -11 17 -32 -7 -33 16 -112 44
-147 12 -15 20 -29 18 -31 -2 -2 -60 15 -129 38 -98 32 -128 46 -136 64 -11
24 0 45 25 45 27 0 69 29 81 54 14 31 27 35 19 6z m549 -15 c4 -8 12 -15 20
-15 31 0 134 -88 134 -114 0 -3 -24 -22 -53 -41 -60 -40 -129 -62 -202 -64
l-50 -2 41 39 c50 48 84 118 84 172 0 40 15 54 26 25z m286 -214 c-1 -13 5
-43 13 -68 11 -31 12 -50 5 -63 -5 -10 -10 -27 -10 -38 0 -11 -8 -37 -17 -58
-16 -36 -17 -37 -21 -14 -5 32 -20 50 -50 61 -20 8 -22 12 -12 24 10 12 9 16
-6 21 -23 9 -54 39 -54 54 0 15 11 12 26 -7 13 -17 13 -17 15 2 6 70 12 85 35
85 9 0 22 7 31 15 22 23 49 14 45 -14z m-1881 -1832 c19 -7 42 -19 52 -27 13
-11 23 -13 40 -5 12 5 47 8 77 7 30 -1 60 2 66 7 6 5 19 7 28 3 9 -3 22 -1 30
5 7 6 36 13 65 16 52 5 52 5 48 -23 -4 -30 -31 -48 -87 -58 -19 -4 -52 -18
-72 -30 -23 -15 -48 -22 -65 -20 -48 6 -93 18 -93 26 0 6 -21 13 -110 38 -25
8 -36 31 -26 58 6 17 5 17 47 3z m124 -379 c0 -11 -10 -14 -42 -12 -32 2 -47
-2 -62 -17 -12 -12 -26 -21 -32 -21 -5 0 -8 -4 -5 -9 8 -12 89 -1 98 13 4 6 8
-10 8 -35 l0 -46 -45 7 c-26 4 -51 12 -57 18 -7 7 -22 12 -35 12 -16 0 -23 6
-23 20 0 11 -4 20 -9 20 -4 0 -6 11 -3 25 2 14 8 22 13 19 5 -3 15 1 23 8 20
21 171 18 171 -2z m328 11 c12 -1 8 -86 -5 -99 -7 -7 -38 -12 -71 -12 -32 0
-67 -5 -78 -10 -20 -11 -22 -6 -21 50 1 72 -2 69 55 72 44 3 72 3 120 -1z"/>
<path d="M6937 2123 c8 -60 23 -101 38 -107 9 -3 12 -12 9 -21 -4 -10 -2 -15
7 -13 8 2 15 -7 17 -19 2 -13 7 -23 12 -23 11 0 55 -88 48 -95 -8 -9 -69 52
-67 67 3 24 -1 38 -11 38 -13 0 -13 -54 0 -100 8 -30 16 -97 36 -280 2 -19 6
-109 9 -200 3 -91 10 -235 16 -320 10 -163 19 -344 22 -496 2 -54 8 -98 15
-106 24 -30 42 -111 35 -163 -5 -44 -4 -48 9 -38 8 7 18 10 21 6 12 -11 8 -23
-7 -23 -8 0 -18 -4 -21 -10 -9 -15 25 -60 46 -60 11 0 18 -3 18 -7 -1 -5 0
-12 1 -18 1 -5 3 -17 4 -25 1 -17 88 -31 109 -18 22 14 87 9 87 -6 0 -19 -18
-25 -108 -32 -183 -15 -302 57 -302 183 0 84 -19 117 -87 152 -110 55 -420
114 -620 117 -67 1 -127 6 -135 10 -42 26 -494 66 -542 48 -13 -5 -13 -8 -1
-20 7 -8 18 -14 24 -14 13 0 14 -17 2 -25 -5 -3 -17 -27 -26 -54 -9 -27 -23
-55 -31 -62 -8 -7 -27 -37 -41 -68 -23 -50 -66 -113 -100 -149 -7 -7 -16 -24
-19 -38 -3 -13 -10 -24 -15 -24 -13 0 -59 -50 -59 -65 0 -7 -3 -20 -6 -29 -5
-14 5 -16 72 -15 44 0 73 3 67 6 -22 8 -14 27 20 51 17 12 26 22 19 22 -23 0
-12 19 32 53 35 27 42 37 33 46 -9 10 -8 15 6 26 11 7 25 11 33 8 8 -3 14 1
14 9 0 8 9 23 20 33 19 18 20 17 20 -6 -1 -41 -33 -93 -68 -111 -45 -22 -53
-31 -19 -23 34 9 36 -10 7 -57 -34 -56 -31 -58 93 -57 61 0 106 3 100 6 -23 9
-14 25 9 17 20 -6 21 -5 10 8 -10 13 -10 17 3 22 9 3 14 10 10 16 -9 15 63
110 85 110 6 0 10 5 10 10 0 6 -5 10 -12 10 -9 0 -9 3 0 12 8 8 15 8 26 -2 13
-10 17 -9 22 4 3 9 14 16 23 16 14 1 14 2 -1 11 -26 14 -22 25 13 39 18 8 28
18 25 26 -3 8 0 11 10 7 11 -4 15 0 12 13 -2 11 8 25 29 38 21 13 30 27 27 36
-10 27 -9 32 6 35 8 2 30 7 48 10 21 5 32 4 32 -4 0 -6 -8 -11 -17 -12 -14 0
-15 -2 -3 -6 8 -4 21 -13 30 -22 13 -13 13 -14 -2 -8 -14 5 -18 1 -18 -18 0
-14 -9 -34 -20 -45 -19 -19 -19 -19 2 -34 l21 -15 -26 -39 c-28 -40 -34 -67
-17 -77 8 -5 8 -11 0 -20 -6 -7 -9 -17 -8 -23 2 -5 -8 -19 -21 -31 -13 -12
-19 -21 -13 -21 19 0 14 -20 -10 -40 -13 -10 -20 -22 -16 -26 4 -4 15 -1 23 6
12 10 19 10 27 2 9 -9 121 -12 405 -12 l393 0 22 22 c13 13 21 29 20 37 -5 22
19 30 37 12 9 -9 22 -29 28 -44 l13 -27 256 0 256 0 -6 23 c-4 16 1 26 16 36
19 12 20 14 5 23 -21 11 -22 32 -2 48 10 8 15 30 15 65 0 39 5 56 20 70 11 10
20 24 20 31 0 8 6 11 15 8 8 -4 15 -2 15 4 0 14 -25 22 -66 22 -19 0 -34 5
-34 10 0 6 18 10 40 10 29 0 40 4 40 15 0 8 -7 15 -15 15 -8 0 -15 5 -15 10 0
6 25 10 55 10 34 0 55 -4 55 -11 0 -8 5 -7 15 1 24 20 36 0 37 -58 0 -59 -7
-75 -30 -68 -19 6 -50 -9 -40 -19 9 -10 70 -10 98 -2 14 5 20 5 14 0 -21 -16
-22 -40 -3 -57 20 -17 17 -41 -4 -33 -7 2 -20 0 -29 -5 -12 -6 -18 -5 -18 3 0
8 -4 8 -15 -1 -21 -18 -19 -33 5 -27 11 3 34 -1 50 -10 32 -15 48 -33 31 -33
-6 0 -11 -13 -11 -30 0 -22 4 -28 15 -24 8 4 17 -1 21 -10 6 -14 67 -16 630
-16 l624 0 0 585 c0 456 -3 586 -12 592 -13 8 -48 65 -48 77 0 3 14 6 31 6 46
0 31 21 -31 41 -29 9 -57 24 -62 33 -5 9 -17 16 -26 16 -9 1 -48 12 -87 26
-193 69 -343 91 -517 73 -102 -10 -109 -9 -137 10 -33 24 -81 28 -81 8 0 -7 9
-23 20 -35 11 -12 20 -26 20 -32 0 -21 -19 -9 -51 32 -18 22 -57 64 -86 92
-29 28 -53 56 -53 62 0 11 -113 94 -130 94 -4 0 -21 10 -37 23 -57 45 -161 99
-233 121 -30 9 -62 21 -71 26 -21 11 -131 16 -146 7 -7 -5 -13 -20 -13 -34 0
-19 -4 -24 -16 -19 -9 3 -18 6 -20 6 -2 0 -4 5 -4 10 0 6 -15 26 -32 45 -73
77 -118 119 -118 109 0 -3 -14 3 -30 13 -17 9 -29 21 -27 26 4 12 -47 67 -62
67 -6 0 -11 4 -11 9 0 11 -52 71 -62 71 -4 0 -4 -17 -1 -37z m335 -611 c15
-26 37 -65 48 -87 11 -22 24 -47 30 -55 5 -8 34 -67 64 -130 29 -63 75 -160
101 -215 26 -55 59 -125 72 -155 52 -116 66 -146 74 -162 8 -14 4 -17 -21 -16
-25 1 -30 5 -30 27 0 18 -10 33 -35 50 -29 19 -33 26 -25 42 8 14 6 21 -9 31
-10 6 -17 18 -14 25 3 8 -3 13 -16 13 -18 0 -21 6 -21 40 0 22 -4 40 -8 40
-15 0 -42 70 -42 109 0 22 -6 44 -15 51 -8 7 -15 20 -15 30 0 9 -11 34 -25 54
-14 20 -25 45 -25 54 0 9 -14 37 -30 62 -16 25 -30 51 -30 59 0 19 -57 138
-70 146 -5 3 -10 18 -10 33 0 33 13 21 52 -46z m757 -71 c25 -28 52 -67 59
-88 14 -41 16 -144 3 -153 -5 -3 -13 -43 -19 -90 -16 -122 -22 -148 -39 -154
-12 -5 -13 0 -8 23 4 18 0 44 -10 67 -10 23 -18 77 -20 132 -2 51 -7 97 -11
103 -4 6 -6 47 -6 90 1 70 0 78 -16 73 -14 -5 -14 -4 -3 4 12 9 12 13 2 26
-11 14 -11 16 5 16 10 0 38 -22 63 -49z"/>
</g>
</svg>
